<?xml version="1.0" standalone="yes"?>
<!-- SVG graphic -->
<svg xmlns='http://www.w3.org/2000/svg' xmlns:xlink='http://www.w3.org/1999/xlink'
 version="1.1">
<rect x="0" y="0" width="6" height="200" stroke="black" stroke-width="1" fill="blue" tooltip="enable"><title>(0,16207)</title></rect><rect x="6" y="94.7122" width="6" height="105.288" stroke="black" stroke-width="1" fill="blue" tooltip="enable"><title>(0.0196497,8532)</title></rect><rect x="12" y="115.777" width="6" height="84.2229" stroke="black" stroke-width="1" fill="blue" tooltip="enable"><title>(0.0392994,6825)</title></rect><rect x="18" y="132.264" width="6" height="67.7362" stroke="black" stroke-width="1" fill="blue" tooltip="enable"><title>(0.058949,5489)</title></rect><rect x="24" y="144.802" width="6" height="55.1984" stroke="black" stroke-width="1" fill="blue" tooltip="enable"><title>(0.0785987,4473)</title></rect><rect x="30" y="154.699" width="6" height="45.3014" stroke="black" stroke-width="1" fill="blue" tooltip="enable"><title>(0.0982484,3671)</title></rect><rect x="36" y="162.288" width="6" height="37.7121" stroke="black" stroke-width="1" fill="blue" tooltip="enable"><title>(0.117898,3056)</title></rect><rect x="42" y="169.1" width="6" height="30.9002" stroke="black" stroke-width="1" fill="blue" tooltip="enable"><title>(0.137548,2504)</title></rect><rect x="48" y="173.777" width="6" height="26.2232" stroke="black" stroke-width="1" fill="blue" tooltip="enable"><title>(0.157197,2125)</title></rect><rect x="54" y="177.38" width="6" height="22.6199" stroke="black" stroke-width="1" fill="blue" tooltip="enable"><title>(0.176847,1833)</title></rect><rect x="60" y="181.169" width="6" height="18.8314" stroke="black" stroke-width="1" fill="blue" tooltip="enable"><title>(0.196497,1526)</title></rect><rect x="66" y="183.427" width="6" height="16.5731" stroke="black" stroke-width="1" fill="blue" tooltip="enable"><title>(0.216146,1343)</title></rect><rect x="72" y="185.241" width="6" height="14.7591" stroke="black" stroke-width="1" fill="blue" tooltip="enable"><title>(0.235796,1196)</title></rect><rect x="78" y="188.03" width="6" height="11.9701" stroke="black" stroke-width="1" fill="blue" tooltip="enable"><title>(0.255446,970)</title></rect><rect x="84" y="188.561" width="6" height="11.4395" stroke="black" stroke-width="1" fill="blue" tooltip="enable"><title>(0.275095,927)</title></rect><rect x="90" y="190.214" width="6" height="9.78589" stroke="black" stroke-width="1" fill="blue" tooltip="enable"><title>(0.294745,793)</title></rect><rect x="96" y="191.448" width="6" height="8.55186" stroke="black" stroke-width="1" fill="blue" tooltip="enable"><title>(0.314395,693)</title></rect><rect x="102" y="192.732" width="6" height="7.26846" stroke="black" stroke-width="1" fill="blue" tooltip="enable"><title>(0.334045,589)</title></rect><rect x="108" y="193.299" width="6" height="6.70081" stroke="black" stroke-width="1" fill="blue" tooltip="enable"><title>(0.353694,543)</title></rect><rect x="114" y="194.459" width="6" height="5.54082" stroke="black" stroke-width="1" fill="blue" tooltip="enable"><title>(0.373344,449)</title></rect><rect x="120" y="194.731" width="6" height="5.26933" stroke="black" stroke-width="1" fill="blue" tooltip="enable"><title>(0.392994,427)</title></rect><rect x="126" y="195.076" width="6" height="4.9238" stroke="black" stroke-width="1" fill="blue" tooltip="enable"><title>(0.412643,399)</title></rect><rect x="132" y="195.434" width="6" height="4.56593" stroke="black" stroke-width="1" fill="blue" tooltip="enable"><title>(0.432293,370)</title></rect><rect x="138" y="196.002" width="6" height="3.99827" stroke="black" stroke-width="1" fill="blue" tooltip="enable"><title>(0.451943,324)</title></rect><rect x="144" y="196.717" width="6" height="3.28253" stroke="black" stroke-width="1" fill="blue" tooltip="enable"><title>(0.471592,266)</title></rect><rect x="150" y="196.458" width="6" height="3.54168" stroke="black" stroke-width="1" fill="blue" tooltip="enable"><title>(0.491242,287)</title></rect><rect x="156" y="197.273" width="6" height="2.72722" stroke="black" stroke-width="1" fill="blue" tooltip="enable"><title>(0.510892,221)</title></rect><rect x="162" y="197.458" width="6" height="2.54211" stroke="black" stroke-width="1" fill="blue" tooltip="enable"><title>(0.530541,206)</title></rect><rect x="168" y="197.742" width="6" height="2.25828" stroke="black" stroke-width="1" fill="blue" tooltip="enable"><title>(0.550191,183)</title></rect><rect x="174" y="197.914" width="6" height="2.08552" stroke="black" stroke-width="1" fill="blue" tooltip="enable"><title>(0.569841,169)</title></rect><rect x="180" y="197.828" width="6" height="2.1719" stroke="black" stroke-width="1" fill="blue" tooltip="enable"><title>(0.58949,176)</title></rect><rect x="186" y="198.235" width="6" height="1.76467" stroke="black" stroke-width="1" fill="blue" tooltip="enable"><title>(0.60914,143)</title></rect><rect x="192" y="198.346" width="6" height="1.65361" stroke="black" stroke-width="1" fill="blue" tooltip="enable"><title>(0.62879,134)</title></rect><rect x="198" y="198.408" width="6" height="1.5919" stroke="black" stroke-width="1" fill="blue" tooltip="enable"><title>(0.648439,129)</title></rect><rect x="204" y="198.556" width="6" height="1.44382" stroke="black" stroke-width="1" fill="blue" tooltip="enable"><title>(0.668089,117)</title></rect><rect x="210" y="198.581" width="6" height="1.41914" stroke="black" stroke-width="1" fill="blue" tooltip="enable"><title>(0.687739,115)</title></rect><rect x="216" y="198.988" width="6" height="1.01191" stroke="black" stroke-width="1" fill="blue" tooltip="enable"><title>(0.707388,82)</title></rect><rect x="222" y="198.926" width="6" height="1.07361" stroke="black" stroke-width="1" fill="blue" tooltip="enable"><title>(0.727038,87)</title></rect><rect x="228" y="199.087" width="6" height="0.913186" stroke="black" stroke-width="1" fill="blue" tooltip="enable"><title>(0.746688,74)</title></rect><rect x="234" y="199.025" width="6" height="0.974887" stroke="black" stroke-width="1" fill="blue" tooltip="enable"><title>(0.766337,79)</title></rect><rect x="240" y="199.235" width="6" height="0.765101" stroke="black" stroke-width="1" fill="blue" tooltip="enable"><title>(0.785987,62)</title></rect><rect x="246" y="199.037" width="6" height="0.962547" stroke="black" stroke-width="1" fill="blue" tooltip="enable"><title>(0.805637,78)</title></rect><rect x="252" y="199.111" width="6" height="0.888505" stroke="black" stroke-width="1" fill="blue" tooltip="enable"><title>(0.825286,72)</title></rect><rect x="258" y="199.358" width="6" height="0.641698" stroke="black" stroke-width="1" fill="blue" tooltip="enable"><title>(0.844936,52)</title></rect><rect x="264" y="199.42" width="6" height="0.579996" stroke="black" stroke-width="1" fill="blue" tooltip="enable"><title>(0.864586,47)</title></rect><rect x="270" y="199.494" width="6" height="0.505954" stroke="black" stroke-width="1" fill="blue" tooltip="enable"><title>(0.884236,41)</title></rect><rect x="276" y="199.358" width="6" height="0.641698" stroke="black" stroke-width="1" fill="blue" tooltip="enable"><title>(0.903885,52)</title></rect><rect x="282" y="199.593" width="6" height="0.407231" stroke="black" stroke-width="1" fill="blue" tooltip="enable"><title>(0.923535,33)</title></rect><rect x="288" y="199.482" width="6" height="0.518295" stroke="black" stroke-width="1" fill="blue" tooltip="enable"><title>(0.943185,42)</title></rect><rect x="294" y="199.482" width="6" height="0.518295" stroke="black" stroke-width="1" fill="blue" tooltip="enable"><title>(0.962834,42)</title></rect><rect x="300" y="199.617" width="6" height="0.382551" stroke="black" stroke-width="1" fill="blue" tooltip="enable"><title>(0.982484,31)</title></rect><rect x="306" y="199.58" width="6" height="0.419572" stroke="black" stroke-width="1" fill="blue" tooltip="enable"><title>(1.00213,34)</title></rect><rect x="312" y="199.543" width="6" height="0.456593" stroke="black" stroke-width="1" fill="blue" tooltip="enable"><title>(1.02178,37)</title></rect><rect x="318" y="199.63" width="6" height="0.37021" stroke="black" stroke-width="1" fill="blue" tooltip="enable"><title>(1.04143,30)</title></rect><rect x="324" y="199.691" width="6" height="0.308509" stroke="black" stroke-width="1" fill="blue" tooltip="enable"><title>(1.06108,25)</title></rect><rect x="330" y="199.729" width="6" height="0.271488" stroke="black" stroke-width="1" fill="blue" tooltip="enable"><title>(1.08073,22)</title></rect><rect x="336" y="199.741" width="6" height="0.259147" stroke="black" stroke-width="1" fill="blue" tooltip="enable"><title>(1.10038,21)</title></rect><rect x="342" y="199.729" width="6" height="0.271488" stroke="black" stroke-width="1" fill="blue" tooltip="enable"><title>(1.12003,22)</title></rect><rect x="348" y="199.63" width="6" height="0.37021" stroke="black" stroke-width="1" fill="blue" tooltip="enable"><title>(1.13968,30)</title></rect><rect x="354" y="199.667" width="6" height="0.333189" stroke="black" stroke-width="1" fill="blue" tooltip="enable"><title>(1.15933,27)</title></rect><rect x="360" y="199.729" width="6" height="0.271488" stroke="black" stroke-width="1" fill="blue" tooltip="enable"><title>(1.17898,22)</title></rect><rect x="366" y="199.815" width="6" height="0.185105" stroke="black" stroke-width="1" fill="blue" tooltip="enable"><title>(1.19863,15)</title></rect><rect x="372" y="199.852" width="6" height="0.148084" stroke="black" stroke-width="1" fill="blue" tooltip="enable"><title>(1.21828,12)</title></rect><rect x="378" y="199.778" width="6" height="0.222126" stroke="black" stroke-width="1" fill="blue" tooltip="enable"><title>(1.23793,18)</title></rect><rect x="384" y="199.803" width="6" height="0.197446" stroke="black" stroke-width="1" fill="blue" tooltip="enable"><title>(1.25758,16)</title></rect><rect x="390" y="199.778" width="6" height="0.222126" stroke="black" stroke-width="1" fill="blue" tooltip="enable"><title>(1.27723,18)</title></rect><rect x="396" y="199.79" width="6" height="0.209786" stroke="black" stroke-width="1" fill="blue" tooltip="enable"><title>(1.29688,17)</title></rect><rect x="402" y="199.938" width="6" height="0.0617017" stroke="black" stroke-width="1" fill="blue" tooltip="enable"><title>(1.31653,5)</title></rect><rect x="408" y="199.815" width="6" height="0.185105" stroke="black" stroke-width="1" fill="blue" tooltip="enable"><title>(1.33618,15)</title></rect><rect x="414" y="199.852" width="6" height="0.148084" stroke="black" stroke-width="1" fill="blue" tooltip="enable"><title>(1.35583,12)</title></rect><rect x="420" y="199.889" width="6" height="0.111063" stroke="black" stroke-width="1" fill="blue" tooltip="enable"><title>(1.37548,9)</title></rect><rect x="426" y="199.889" width="6" height="0.111063" stroke="black" stroke-width="1" fill="blue" tooltip="enable"><title>(1.39513,9)</title></rect><rect x="432" y="199.889" width="6" height="0.111063" stroke="black" stroke-width="1" fill="blue" tooltip="enable"><title>(1.41478,9)</title></rect><rect x="438" y="199.901" width="6" height="0.0987228" stroke="black" stroke-width="1" fill="blue" tooltip="enable"><title>(1.43443,8)</title></rect><rect x="444" y="199.914" width="6" height="0.0863824" stroke="black" stroke-width="1" fill="blue" tooltip="enable"><title>(1.45408,7)</title></rect><rect x="450" y="199.938" width="6" height="0.0617017" stroke="black" stroke-width="1" fill="blue" tooltip="enable"><title>(1.47373,5)</title></rect><rect x="456" y="199.926" width="6" height="0.0740421" stroke="black" stroke-width="1" fill="blue" tooltip="enable"><title>(1.49338,6)</title></rect><rect x="462" y="199.963" width="6" height="0.037021" stroke="black" stroke-width="1" fill="blue" tooltip="enable"><title>(1.51303,3)</title></rect><rect x="468" y="199.914" width="6" height="0.0863824" stroke="black" stroke-width="1" fill="blue" tooltip="enable"><title>(1.53267,7)</title></rect><rect x="474" y="199.877" width="6" height="0.123403" stroke="black" stroke-width="1" fill="blue" tooltip="enable"><title>(1.55232,10)</title></rect><rect x="480" y="199.988" width="6" height="0.0123403" stroke="black" stroke-width="1" fill="blue" tooltip="enable"><title>(1.57197,1)</title></rect><rect x="486" y="199.914" width="6" height="0.0863824" stroke="black" stroke-width="1" fill="blue" tooltip="enable"><title>(1.59162,7)</title></rect><rect x="492" y="199.938" width="6" height="0.0617017" stroke="black" stroke-width="1" fill="blue" tooltip="enable"><title>(1.61127,5)</title></rect><rect x="498" y="200" width="6" height="0" stroke="black" stroke-width="1" fill="blue" tooltip="enable"><title>(1.63092,0)</title></rect><rect x="504" y="199.926" width="6" height="0.0740421" stroke="black" stroke-width="1" fill="blue" tooltip="enable"><title>(1.65057,6)</title></rect><rect x="510" y="199.951" width="6" height="0.0493614" stroke="black" stroke-width="1" fill="blue" tooltip="enable"><title>(1.67022,4)</title></rect><rect x="516" y="199.975" width="6" height="0.0246807" stroke="black" stroke-width="1" fill="blue" tooltip="enable"><title>(1.68987,2)</title></rect><rect x="522" y="199.975" width="6" height="0.0246807" stroke="black" stroke-width="1" fill="blue" tooltip="enable"><title>(1.70952,2)</title></rect><rect x="528" y="199.963" width="6" height="0.037021" stroke="black" stroke-width="1" fill="blue" tooltip="enable"><title>(1.72917,3)</title></rect><rect x="534" y="199.988" width="6" height="0.0123403" stroke="black" stroke-width="1" fill="blue" tooltip="enable"><title>(1.74882,1)</title></rect><rect x="540" y="199.975" width="6" height="0.0246807" stroke="black" stroke-width="1" fill="blue" tooltip="enable"><title>(1.76847,2)</title></rect><rect x="546" y="199.963" width="6" height="0.037021" stroke="black" stroke-width="1" fill="blue" tooltip="enable"><title>(1.78812,3)</title></rect><rect x="552" y="199.988" width="6" height="0.0123403" stroke="black" stroke-width="1" fill="blue" tooltip="enable"><title>(1.80777,1)</title></rect><rect x="558" y="200" width="6" height="0" stroke="black" stroke-width="1" fill="blue" tooltip="enable"><title>(1.82742,0)</title></rect><rect x="564" y="199.938" width="6" height="0.0617017" stroke="black" stroke-width="1" fill="blue" tooltip="enable"><title>(1.84707,5)</title></rect><rect x="570" y="199.975" width="6" height="0.0246807" stroke="black" stroke-width="1" fill="blue" tooltip="enable"><title>(1.86672,2)</title></rect><rect x="576" y="199.988" width="6" height="0.0123403" stroke="black" stroke-width="1" fill="blue" tooltip="enable"><title>(1.88637,1)</title></rect><rect x="582" y="199.951" width="6" height="0.0493614" stroke="black" stroke-width="1" fill="blue" tooltip="enable"><title>(1.90602,4)</title></rect><rect x="588" y="199.963" width="6" height="0.037021" stroke="black" stroke-width="1" fill="blue" tooltip="enable"><title>(1.92567,3)</title></rect><rect x="594" y="200" width="6" height="0" stroke="black" stroke-width="1" fill="blue" tooltip="enable"><title>(1.94532,0)</title></rect><text x="30" y="240" font-size="20" fill="black">0</text>
<text x="600" y="240" font-size="20" fill="black">1.96497</text>
<polyline points="0,220,600,220" stroke="black" stroke-width="1" fill="none"/>
<text x="720" y="20" font-size="20" fill="black">16207</text>
<text x="720" y="200" font-size="20" fill="black">0</text>
<polyline points="660,0,660,200" stroke="black" stroke-width="1" fill="none"/>
</svg>